<svg xmlns="http://www.w3.org/2000/svg" viewBox="0 0 320 260" role="img"><defs><linearGradient id="metal" x2="1" y2="1"><stop stop-color="#c8ccd0"/><stop offset=".45" stop-color="#858e98"/><stop offset="1" stop-color="#dbe0e3"/></linearGradient><linearGradient id="dark" x2="1" y2="1"><stop stop-color="#454c54"/><stop offset="1" stop-color="#11171d"/></linearGradient><linearGradient id="screen" x1="0" y1="1" x2="1" y2="0"><stop stop-color="#355c57"/><stop offset=".4" stop-color="#77a382"/><stop offset=".7" stop-color="#bfd895"/><stop offset="1" stop-color="#dff2b9"/></linearGradient><linearGradient id="blue" x1="0" y1="1" x2="1" y2="0"><stop stop-color="#323752"/><stop offset=".5" stop-color="#797ed0"/><stop offset="1" stop-color="#d1c4ee"/></linearGradient><filter id="shadow" x="-30%" y="-30%" width="170%" height="180%"><feDropShadow dx="0" dy="10" stdDeviation="8" flood-color="#17271d" flood-opacity=".13"/></filter></defs><g filter="url(#shadow)" transform="rotate(-8 160 130)"><rect x="23" y="74" width="278" height="130" rx="11" fill="#919d96"/><rect x="29" y="80" width="266" height="116" rx="7" fill="#354140"/><rect x="36" y="88" width="18" height="18" rx="3" fill="#c4cec0"/><path d="M42 94h4" stroke="#65735e" stroke-width="1"/><rect x="58" y="88" width="18" height="18" rx="3" fill="#a6b69b"/><path d="M64 94h4" stroke="#65735e" stroke-width="1"/><rect x="80" y="88" width="18" height="18" rx="3" fill="#ced6c7"/><path d="M86 94h4" stroke="#65735e" stroke-width="1"/><rect x="102" y="88" width="18" height="18" rx="3" fill="#8cab7b"/><path d="M108 94h4" stroke="#65735e" stroke-width="1"/><rect x="124" y="88" width="18" height="18" rx="3" fill="#c4cec0"/><path d="M130 94h4" stroke="#65735e" stroke-width="1"/><rect x="146" y="88" width="18" height="18" rx="3" fill="#a6b69b"/><path d="M152 94h4" stroke="#65735e" stroke-width="1"/><rect x="168" y="88" width="18" height="18" rx="3" fill="#ced6c7"/><path d="M174 94h4" stroke="#65735e" stroke-width="1"/><rect x="190" y="88" width="18" height="18" rx="3" fill="#8cab7b"/><path d="M196 94h4" stroke="#65735e" stroke-width="1"/><rect x="212" y="88" width="18" height="18" rx="3" fill="#c4cec0"/><path d="M218 94h4" stroke="#65735e" stroke-width="1"/><rect x="234" y="88" width="18" height="18" rx="3" fill="#a6b69b"/><path d="M240 94h4" stroke="#65735e" stroke-width="1"/><rect x="256" y="88" width="18" height="18" rx="3" fill="#ced6c7"/><path d="M262 94h4" stroke="#65735e" stroke-width="1"/><rect x="36" y="110" width="18" height="18" rx="3" fill="#a6b69b"/><path d="M42 116h4" stroke="#65735e" stroke-width="1"/><rect x="58" y="110" width="18" height="18" rx="3" fill="#ced6c7"/><path d="M64 116h4" stroke="#65735e" stroke-width="1"/><rect x="80" y="110" width="18" height="18" rx="3" fill="#8cab7b"/><path d="M86 116h4" stroke="#65735e" stroke-width="1"/><rect x="102" y="110" width="18" height="18" rx="3" fill="#c4cec0"/><path d="M108 116h4" stroke="#65735e" stroke-width="1"/><rect x="124" y="110" width="18" height="18" rx="3" fill="#a6b69b"/><path d="M130 116h4" stroke="#65735e" stroke-width="1"/><rect x="146" y="110" width="18" height="18" rx="3" fill="#ced6c7"/><path d="M152 116h4" stroke="#65735e" stroke-width="1"/><rect x="168" y="110" width="18" height="18" rx="3" fill="#8cab7b"/><path d="M174 116h4" stroke="#65735e" stroke-width="1"/><rect x="190" y="110" width="18" height="18" rx="3" fill="#c4cec0"/><path d="M196 116h4" stroke="#65735e" stroke-width="1"/><rect x="212" y="110" width="18" height="18" rx="3" fill="#a6b69b"/><path d="M218 116h4" stroke="#65735e" stroke-width="1"/><rect x="234" y="110" width="18" height="18" rx="3" fill="#ced6c7"/><path d="M240 116h4" stroke="#65735e" stroke-width="1"/><rect x="256" y="110" width="18" height="18" rx="3" fill="#8cab7b"/><path d="M262 116h4" stroke="#65735e" stroke-width="1"/><rect x="36" y="132" width="18" height="18" rx="3" fill="#ced6c7"/><path d="M42 138h4" stroke="#65735e" stroke-width="1"/><rect x="58" y="132" width="18" height="18" rx="3" fill="#8cab7b"/><path d="M64 138h4" stroke="#65735e" stroke-width="1"/><rect x="80" y="132" width="18" height="18" rx="3" fill="#c4cec0"/><path d="M86 138h4" stroke="#65735e" stroke-width="1"/><rect x="102" y="132" width="18" height="18" rx="3" fill="#a6b69b"/><path d="M108 138h4" stroke="#65735e" stroke-width="1"/><rect x="124" y="132" width="18" height="18" rx="3" fill="#ced6c7"/><path d="M130 138h4" stroke="#65735e" stroke-width="1"/><rect x="146" y="132" width="18" height="18" rx="3" fill="#8cab7b"/><path d="M152 138h4" stroke="#65735e" stroke-width="1"/><rect x="168" y="132" width="18" height="18" rx="3" fill="#c4cec0"/><path d="M174 138h4" stroke="#65735e" stroke-width="1"/><rect x="190" y="132" width="18" height="18" rx="3" fill="#a6b69b"/><path d="M196 138h4" stroke="#65735e" stroke-width="1"/><rect x="212" y="132" width="18" height="18" rx="3" fill="#ced6c7"/><path d="M218 138h4" stroke="#65735e" stroke-width="1"/><rect x="234" y="132" width="18" height="18" rx="3" fill="#8cab7b"/><path d="M240 138h4" stroke="#65735e" stroke-width="1"/><rect x="256" y="132" width="18" height="18" rx="3" fill="#c4cec0"/><path d="M262 138h4" stroke="#65735e" stroke-width="1"/><rect x="36" y="154" width="18" height="18" rx="3" fill="#8cab7b"/><path d="M42 160h4" stroke="#65735e" stroke-width="1"/><rect x="58" y="154" width="18" height="18" rx="3" fill="#c4cec0"/><path d="M64 160h4" stroke="#65735e" stroke-width="1"/><rect x="80" y="154" width="18" height="18" rx="3" fill="#a6b69b"/><path d="M86 160h4" stroke="#65735e" stroke-width="1"/><rect x="102" y="154" width="18" height="18" rx="3" fill="#ced6c7"/><path d="M108 160h4" stroke="#65735e" stroke-width="1"/><rect x="124" y="154" width="18" height="18" rx="3" fill="#8cab7b"/><path d="M130 160h4" stroke="#65735e" stroke-width="1"/><rect x="146" y="154" width="18" height="18" rx="3" fill="#c4cec0"/><path d="M152 160h4" stroke="#65735e" stroke-width="1"/><rect x="168" y="154" width="18" height="18" rx="3" fill="#a6b69b"/><path d="M174 160h4" stroke="#65735e" stroke-width="1"/><rect x="190" y="154" width="18" height="18" rx="3" fill="#ced6c7"/><path d="M196 160h4" stroke="#65735e" stroke-width="1"/><rect x="212" y="154" width="18" height="18" rx="3" fill="#8cab7b"/><path d="M218 160h4" stroke="#65735e" stroke-width="1"/><rect x="234" y="154" width="18" height="18" rx="3" fill="#c4cec0"/><path d="M240 160h4" stroke="#65735e" stroke-width="1"/><rect x="256" y="154" width="18" height="18" rx="3" fill="#a6b69b"/><path d="M262 160h4" stroke="#65735e" stroke-width="1"/><rect x="96" y="176" width="105" height="15" rx="3" fill="#b8c6b0"/><rect x="37" y="176" width="24" height="15" rx="3" fill="#b8c6b0"/><rect x="65" y="176" width="24" height="15" rx="3" fill="#b8c6b0"/><rect x="208" y="176" width="24" height="15" rx="3" fill="#b8c6b0"/><rect x="236" y="176" width="42" height="15" rx="3" fill="#b8c6b0"/></g></svg>